<svg width="44" height="43" viewBox="0 0 44 43" fill="none" xmlns="http://www.w3.org/2000/svg">
<path d="M42.4783 8.52708H39.0374C39.1374 8.38682 39.228 8.23947 39.3073 8.08503C39.7625 7.19578 39.8241 6.14854 39.4762 5.21157L38.4335 2.40904C38.0859 1.47304 37.3556 0.720494 36.4306 0.344545C35.5046 -0.031726 34.4557 -0.00174041 33.5526 0.427086L25.3004 4.34618C24.8926 4.0547 24.3938 3.88253 23.8553 3.88253H20.1448C19.6064 3.88253 19.1073 4.05503 18.6994 4.3465L10.4476 0.426764C9.54444 -0.00174037 8.49559 -0.031726 7.56958 0.344545C6.64454 0.720494 5.91425 1.47304 5.56667 2.40872L4.52395 5.21189C4.17605 6.14854 4.23763 7.19578 4.69322 8.08503C4.77221 8.23947 4.86314 8.38714 4.96309 8.52708H1.52184C1.16169 8.52708 0.869568 8.81887 0.869568 9.17934V13.8748C0.869568 14.235 1.16169 14.5271 1.52184 14.5271C1.88199 14.5271 2.1741 14.235 2.1741 13.8748V9.83129H6.70451C6.77706 9.85676 6.85057 9.8803 6.92505 9.90093L12.4008 11.4083C11.184 13.2729 10.1106 15.2342 9.19171 17.2664H2.1741V16.4836C2.1741 16.1234 1.88199 15.8316 1.52184 15.8316C1.16169 15.8316 0.869568 16.1234 0.869568 16.4836V17.9187C0.869568 18.2789 1.16169 18.571 1.52184 18.571H3.84782V41.6622C3.84782 42.0226 4.13994 42.3144 4.50009 42.3144H39.5001C39.8602 42.3144 40.1524 42.0226 40.1524 41.6622V37.8749C40.1524 37.5148 39.8602 37.2227 39.5001 37.2227C39.1396 37.2227 38.8478 37.5148 38.8478 37.8749V41.0102H25.9131V18.9721C27.7606 22.4714 29.0112 26.2763 29.5868 30.2077C29.6248 30.4679 29.8157 30.6797 30.0707 30.7448C30.1243 30.7587 30.1784 30.7651 30.2323 30.7651C30.4338 30.7651 30.6279 30.6716 30.753 30.5056C31.6906 29.2617 32.5624 27.93 33.3495 26.5397C34.6676 27.4374 35.9473 28.4382 37.1615 29.5215C37.3663 29.704 37.6636 29.7392 37.9051 29.6089C38.1465 29.479 38.281 29.2117 38.241 28.9402C37.7203 25.388 36.7495 21.8949 35.3734 18.571H38.8475V35.2659C38.8475 35.6263 39.1396 35.9181 39.4998 35.9181C39.8602 35.9181 40.152 35.6263 40.152 35.2659V18.571H42.4783C42.8385 18.571 43.1303 18.2789 43.1303 17.9187V9.17934C43.1306 8.81887 42.8388 8.52708 42.4783 8.52708ZM34.112 1.60523C34.694 1.32923 35.3427 1.31053 35.9395 1.553C36.5354 1.79514 36.9868 2.2604 37.2109 2.86366L38.2533 5.66587C38.4777 6.26945 38.4393 6.91752 38.1459 7.49048C37.8528 8.0631 37.3495 8.47259 36.7292 8.64315L26.3467 11.5015V8.36683C28.6804 6.93784 34.4983 3.99054 35.9463 6.0344C36.1543 6.32813 36.5612 6.3981 36.8552 6.18981C37.1493 5.98152 37.2189 5.5743 37.0106 5.28057C35.8931 3.70294 33.5381 3.6262 30.0104 5.05293C28.5573 5.64039 27.2157 6.35747 26.3467 6.85497V6.37359C26.3467 6.0244 26.2742 5.69166 26.1439 5.38955L34.112 1.60523ZM20.1448 5.18674H23.8553C24.5099 5.18674 25.0422 5.71939 25.0422 6.37359V11.7649C25.0422 12.4194 24.5099 12.9517 23.8553 12.9517H20.1448C19.4903 12.9517 18.958 12.4194 18.958 11.7649V6.37359C18.958 5.71907 19.4903 5.18674 20.1448 5.18674ZM19.0486 17.2661C19.6725 16.2295 20.3515 15.2248 21.0821 14.2563H22.9174C23.6483 15.2248 24.3274 16.2295 24.9509 17.2661H19.0486ZM5.85428 7.49048C5.56087 6.91752 5.5225 6.26945 5.74659 5.66619L6.78963 2.86334C7.0134 2.2604 7.4648 1.79514 8.06064 1.553C8.65713 1.31053 9.30617 1.32923 9.88783 1.60523L17.8563 5.39019C17.726 5.69198 17.6535 6.0244 17.6535 6.37391V6.89237C16.7874 6.3939 15.4155 5.65555 13.9252 5.05293C10.3979 3.6262 8.04258 3.70294 6.92505 5.28057C6.71677 5.5743 6.78641 5.98152 7.08046 6.18981C7.37452 6.3981 7.78142 6.32845 7.98938 6.0344C9.45094 3.97119 15.3646 6.99362 17.6535 8.40649V11.5015L7.27134 8.64347C6.65067 8.47259 6.14736 8.0631 5.85428 7.49048ZM17.9462 12.935C18.2709 13.5424 18.8397 14.0006 19.521 14.1769C16.4705 18.433 14.3705 23.3232 13.3855 28.4633C12.6926 27.4509 12.0449 26.3898 11.4519 25.2939C11.3652 25.1333 11.2156 25.0166 11.0386 24.9718C10.8619 24.927 10.6745 24.9582 10.522 25.0579C9.43579 25.7662 8.3721 26.5433 7.34485 27.3777C8.40273 21.8249 10.5885 16.4707 13.7228 11.7723L17.9462 12.935ZM5.15235 18.571H8.62682C7.2507 21.8949 6.27988 25.3877 5.75884 28.9402C5.71918 29.2117 5.85331 29.479 6.09481 29.6089C6.33663 29.7388 6.63358 29.704 6.83832 29.5215C8.05258 28.4382 9.33229 27.4374 10.6507 26.5397C11.4377 27.93 12.3092 29.2613 13.2472 30.5056C13.3723 30.6716 13.5664 30.7655 13.7679 30.7655C13.8217 30.7655 13.8759 30.7587 13.9294 30.7448C14.1845 30.6797 14.375 30.4679 14.4131 30.2077C14.9889 26.2763 16.2396 22.471 18.0868 18.9717V41.0102H5.15235V18.571ZM19.3913 41.0102V18.571H24.6088V41.0102H19.3913ZM33.4781 25.0579C33.3256 24.9582 33.138 24.9273 32.9616 24.9721C32.7849 25.0169 32.635 25.1336 32.5483 25.2939C31.9553 26.3898 31.3076 27.4512 30.6147 28.4633C29.6297 23.3229 27.5297 18.433 24.4789 14.1773C25.1602 14.0012 25.7293 13.5427 26.054 12.935L30.2784 11.772C33.412 16.4713 35.5978 21.8255 36.6556 27.3777C35.6281 26.5433 34.5644 25.7662 33.4781 25.0579ZM41.8261 17.2664H34.8088C33.8899 15.2342 32.8165 13.2729 31.6 11.4083L37.0751 9.90093C37.1496 9.8803 37.2231 9.85676 37.2957 9.83129H41.8261V17.2664Z" fill="#956D84"/>
</svg>
