<svg width="46" height="44" viewBox="0 0 46 44" fill="none" xmlns="http://www.w3.org/2000/svg">
<path d="M12.9656 12.8332H13.8622C13.5183 12.3621 13.228 11.8501 12.9911 11.3076C12.5633 10.317 12.3265 9.23208 12.3265 8.09367C12.3265 7.10035 12.5073 6.1428 12.8409 5.25658C13.1848 4.33721 13.689 3.49924 14.3206 2.77599C14.5651 2.49586 14.9904 2.46774 15.268 2.71229C15.5482 2.95685 15.5762 3.37956 15.3317 3.6597C14.8045 4.26327 14.3843 4.96117 14.099 5.7252C13.824 6.4586 13.6737 7.25578 13.6737 8.09367C13.6737 9.05131 13.8698 9.95783 14.2238 10.7754C14.5574 11.5446 15.0336 12.2424 15.6168 12.8332H25.2208C25.8039 12.2424 26.2802 11.5446 26.6138 10.7754C26.9678 9.95783 27.1639 9.05131 27.1639 8.09367C27.1639 6.23192 26.41 4.5434 25.1876 3.3235C23.9676 2.10369 22.2817 1.3473 20.4174 1.3473C19.903 1.3473 19.4063 1.40327 18.9352 1.50767C18.4513 1.61719 17.9802 1.78016 17.5344 1.99157C17.1983 2.15203 16.7984 2.00693 16.6405 1.67073C16.48 1.33454 16.6252 0.934735 16.9614 0.776879C17.4886 0.527293 18.054 0.331164 18.6474 0.198734C19.2231 0.0688203 19.8164 0 20.4174 0C22.6536 0 24.6757 0.906703 26.1426 2.37107C26.8532 3.08164 27.4313 3.92464 27.8388 4.85938C28.1724 4.09535 28.6206 3.39232 29.1606 2.77608C29.4051 2.49595 29.8304 2.46783 30.108 2.71238C30.3881 2.95694 30.4162 3.37965 30.1716 3.65979C29.6444 4.26336 29.2242 4.96126 28.9364 5.72529C28.6613 6.45869 28.5111 7.25587 28.5111 8.09376C28.5111 9.0514 28.7098 9.95792 29.0638 10.7755C29.3974 11.5447 29.8711 12.2425 30.4569 12.8333H40.0582C40.644 12.2425 41.1202 11.5447 41.4538 10.7755C41.8078 9.95792 42.0039 9.0514 42.0039 8.09376C42.0039 6.23201 41.2475 4.54349 40.0276 3.32359C38.8077 2.10378 37.1218 1.34739 35.2576 1.34739C34.7406 1.34739 34.2465 1.40336 33.7753 1.50776C33.2914 1.61728 32.8203 1.78025 32.3746 1.99166C32.0384 2.15212 31.6386 2.00702 31.4781 1.67082C31.3202 1.33463 31.4653 0.934824 31.799 0.776969C32.3287 0.527383 32.8941 0.331254 33.485 0.198824C34.0632 0.0689103 34.6566 8.99658e-05 35.2576 8.99658e-05C37.4937 8.99658e-05 39.5158 0.906793 40.9802 2.37116C42.4445 3.83561 43.3512 5.86024 43.3512 8.09384C43.3512 9.23226 43.1144 10.3172 42.684 11.3078C42.4496 11.8503 42.1568 12.3622 41.8155 12.8334H42.7094C43.6161 12.8334 44.4387 13.2052 45.0346 13.8012C45.6307 14.3969 46 15.2194 46 16.1236V33.653C46 34.5598 45.6307 35.3823 45.0347 35.9783C44.4388 36.5742 43.6162 36.9435 42.7095 36.9435H37.9394L36.335 42.5592C36.2535 42.8495 35.9886 43.0481 35.6881 43.0481H19.9897C19.6714 43.0481 19.4039 42.8265 19.3327 42.5286L17.7384 36.9435H12.9656C12.0615 36.9435 11.2389 36.5742 10.643 35.9783C10.047 35.3823 9.67527 34.5597 9.67527 33.653V29.7488H7.36018V31.0807C7.36018 31.4068 7.12838 31.6819 6.8177 31.743L0.860793 33.4697C0.435563 33.5946 0 33.2711 0 32.8255V26.4151C0 26.0433 0.303043 25.7402 0.674906 25.7402C1.04668 25.7402 1.34721 26.0433 1.34721 26.4151V31.9315L6.01297 30.5765C6.01297 26.7844 6.01297 22.9922 6.01297 19.2001L1.34721 17.8477V23.3615C1.34721 23.736 1.04668 24.0364 0.674906 24.0364C0.303043 24.0364 0 23.7359 0 23.3615V16.9514C0 16.4751 0.481383 16.1542 0.916855 16.3248L6.87377 18.0515C7.16154 18.1356 7.36018 18.3978 7.36018 18.6959V20.0279H9.67518V16.1236C9.67518 15.2194 10.047 14.3969 10.6429 13.801C11.239 13.2025 12.0615 12.8332 12.9656 12.8332V12.8332ZM35.2577 4.74456C36.1821 4.74456 37.02 5.11894 37.6262 5.72511C38.2323 6.3312 38.6067 7.16908 38.6067 8.09358C38.6067 9.01798 38.2323 9.85595 37.6262 10.462C37.02 11.0682 36.1821 11.4426 35.2577 11.4426C34.3332 11.4426 33.4953 11.0682 32.8892 10.462C32.283 9.85595 31.9086 9.01807 31.9086 8.09358C31.9086 7.16908 32.283 6.3312 32.8892 5.72511C33.4953 5.11894 34.3332 4.74456 35.2577 4.74456V4.74456ZM36.6737 6.67764C36.3121 6.31602 35.8103 6.09186 35.2577 6.09186C34.705 6.09186 34.2059 6.31593 33.8416 6.67764C33.48 7.04177 33.2558 7.54095 33.2558 8.09367C33.2558 8.64629 33.4799 9.14807 33.8416 9.5096C34.2059 9.87122 34.7049 10.0955 35.2577 10.0955C35.8103 10.0955 36.3121 9.87131 36.6737 9.5096C37.0353 9.14807 37.2595 8.64629 37.2595 8.09367C37.2595 7.54095 37.0353 7.04177 36.6737 6.67764ZM20.4175 4.74456C21.3445 4.74456 22.1799 5.11894 22.7861 5.72511C23.3922 6.3312 23.7665 7.16908 23.7665 8.09358C23.7665 9.01798 23.3922 9.85595 22.7861 10.462C22.1799 11.0682 21.3446 11.4426 20.4175 11.4426C19.493 11.4426 18.6578 11.0682 18.0516 10.462C17.4454 9.85595 17.0685 9.01807 17.0685 8.09358C17.0685 7.16908 17.4455 6.3312 18.0516 5.72511C18.6578 5.11894 19.493 4.74456 20.4175 4.74456V4.74456ZM21.8336 6.67764C21.472 6.31602 20.9728 6.09186 20.4176 6.09186C19.865 6.09186 19.3658 6.31593 19.0042 6.67764C18.6426 7.04177 18.4184 7.54095 18.4184 8.09367C18.4184 8.64629 18.6425 9.14807 19.0042 9.5096C19.3658 9.87122 19.865 10.0955 20.4176 10.0955C20.9703 10.0955 21.472 9.87131 21.8336 9.5096C22.1953 9.14807 22.4194 8.64629 22.4194 8.09367C22.4193 7.54095 22.1952 7.04177 21.8336 6.67764ZM23.028 26.8456C23.2929 27.1078 23.2929 27.5358 23.028 27.7981C22.7657 28.0604 22.3379 28.0604 22.0755 27.7981L20.145 25.8675C19.1747 24.8972 18.6908 23.6214 18.6908 22.3453C18.6908 21.0694 19.1747 19.791 20.145 18.8231C21.0823 17.8858 22.3429 17.3689 23.6673 17.3689C24.9432 17.3689 26.2192 17.8528 27.1895 18.8231L27.839 19.4726L28.4884 18.8231C29.4562 17.8528 30.7346 17.3689 32.0106 17.3689C33.2866 17.3689 34.5624 17.8528 35.5328 18.8231C36.4675 19.7578 36.9871 21.0209 36.9871 22.3453C36.9871 23.6214 36.5006 24.8997 35.5328 25.8675L28.3152 33.0826C28.0529 33.3475 27.6251 33.3475 27.3627 33.0826L24.2353 29.9552C23.9704 29.6929 23.9704 29.2676 24.2353 29.0026C24.4976 28.7404 24.9254 28.7404 25.1878 29.0026L27.839 31.6538L34.5803 24.9125C35.2629 24.23 35.6398 23.3106 35.6398 22.3453C35.6398 21.4133 35.2857 20.4811 34.5803 19.7756C33.8724 19.0701 32.9427 18.7162 32.0106 18.7162C31.0785 18.7162 30.1464 19.0701 29.4409 19.7756L28.3152 20.9013C28.0528 21.1636 27.625 21.1636 27.3626 20.9013L26.237 19.7756C25.5544 19.0931 24.6325 18.7136 23.6673 18.7136C22.7377 18.7136 21.8056 19.0676 21.0976 19.7756C20.3921 20.4811 20.0381 21.4133 20.0381 22.3453C20.0381 23.2774 20.3921 24.2071 21.0976 24.915L23.028 26.8456ZM9.67527 28.4017V21.3776H7.36018V28.4017H9.67527ZM27.8389 11.323C27.6046 11.8603 27.3143 12.3672 26.9756 12.8332H28.6998C28.3635 12.3671 28.0732 11.8603 27.8389 11.323ZM36.5387 36.9436H19.1365L20.4965 41.701H35.1787L36.5387 36.9436ZM42.7095 14.1805C32.7949 14.1805 22.8803 14.1805 12.9656 14.1805C12.4334 14.1805 11.947 14.3995 11.5955 14.7535C11.2415 15.1049 11.0225 15.5913 11.0225 16.1237V33.6531C11.0225 34.188 11.2415 34.6719 11.5955 35.026C11.947 35.3773 12.4334 35.5965 12.9656 35.5965H42.7095C43.2443 35.5965 43.7307 35.3774 44.0822 35.026C44.4338 34.6719 44.6527 34.188 44.6527 33.6531V16.1237C44.6527 15.5914 44.4337 15.105 44.0822 14.7535C43.7308 14.3994 43.2444 14.1805 42.7095 14.1805V14.1805Z" fill="#AA8A9D"/>
</svg>
