<svg width="15" height="15" viewBox="0 0 15 15" fill="none" xmlns="http://www.w3.org/2000/svg">
<path d="M13.7936 1.12946e-06H0.797114C0.56789 -0.000445029 0.357744 0.13132 0.25296 0.341162C0.14673 0.55383 0.165375 0.809924 0.301088 1.00415L5.06247 7.9059C5.06406 7.90828 5.0658 7.91051 5.06739 7.91289C5.24039 8.15322 5.3339 8.44426 5.33448 8.74348V14.3704C5.33346 14.5371 5.39706 14.6971 5.51124 14.8154C5.62541 14.9336 5.78064 14.9999 5.94251 14.9999C6.02489 14.9999 6.10626 14.983 6.18229 14.9506L8.85782 13.9008C9.09759 13.8255 9.25672 13.5928 9.25672 13.3124V8.74348C9.25715 8.44441 9.35081 8.15322 9.52367 7.91289C9.52526 7.91051 9.52699 7.90828 9.52858 7.9059L14.2898 1.00385C14.4255 0.809775 14.4442 0.55383 14.3379 0.341162C14.2332 0.13132 14.023 -0.000445029 13.7936 1.12946e-06V1.12946e-06ZM8.92705 7.46182C8.66111 7.83317 8.51731 8.28215 8.51644 8.74348V13.2199L6.07447 14.178V8.74348C6.0736 8.28215 5.92979 7.83317 5.66371 7.46182L1.04122 0.761442H13.5497L8.92705 7.46182Z" fill="white"/>
</svg>
