<svg width="46" height="46" viewBox="0 0 46 46" fill="none" xmlns="http://www.w3.org/2000/svg">
<g opacity="0.8" clip-path="url(#clip0_95_1600)">
<path d="M45.6959 15.6529C45.4477 15.3141 45.0824 15.0922 44.6674 15.0281L31.3041 12.9644V1.57409C31.3041 0.707192 30.5988 0.00183105 29.7319 0.00183105H1.57224C0.705345 0.00183105 -1.52588e-05 0.707192 -1.52588e-05 1.57409V29.7515C-1.52588e-05 30.6184 0.705345 31.3238 1.57224 31.3238H12.0665L10.7435 39.8915C10.6125 40.7393 11.2095 41.5546 12.0573 41.6854L39.887 45.9832C40.7157 46.1112 41.5517 45.5042 41.6807 44.6693L42.4003 40.0094C42.5333 39.1484 41.2014 38.9425 41.0685 39.8037C40.9778 40.3905 40.5592 44.7215 40.0926 44.6514L12.263 40.3536C12.1297 40.32 12.067 40.2345 12.0753 40.0972L13.4301 31.3238H14.938L13.842 38.4206C13.7852 38.7884 14.0373 39.1326 14.4051 39.1894L38.4014 42.8952C38.7401 42.9473 39.1169 42.6768 39.1702 42.3321L42.8826 18.293C42.9394 17.9252 42.6873 17.581 42.3195 17.5243L31.304 15.8231V14.3281L44.4617 16.3601C44.595 16.3937 44.6575 16.4791 44.6494 16.6164L41.5932 36.4059C41.4639 37.243 42.7899 37.4867 42.925 36.6116L45.9812 16.822C46.0454 16.407 45.9439 15.9918 45.6959 15.6529ZM1.34764 29.7515V1.57409C1.34764 1.4502 1.44844 1.34948 1.57224 1.34948H29.7318C29.8556 1.34948 29.9564 1.4502 29.9564 1.57409V29.7515C29.9564 29.8754 29.8556 29.9761 29.7318 29.9761H1.57224C1.44844 29.9761 1.34764 29.8754 1.34764 29.7515ZM41.4479 18.7532L37.9411 41.4604L15.2767 37.9602L16.3016 31.3238H29.7318C30.5987 31.3238 31.304 30.6184 31.304 29.7515V17.1866L41.4479 18.7532Z" fill="#956D84"/>
<path d="M27.7924 2.82605H3.51161C3.13948 2.82605 2.83778 3.12765 2.83778 3.49988V6.8681C2.83778 7.73932 4.18543 7.73932 4.18543 6.8681V4.1737H27.1185V27.1501H4.18543V10.4518C4.18543 9.58057 2.83778 9.58057 2.83778 10.4518V27.8239C2.83778 28.1961 3.13948 28.4977 3.51161 28.4977H27.7923C28.1645 28.4977 28.4662 28.1961 28.4662 27.8239V3.49988C28.4662 3.12765 28.1645 2.82605 27.7924 2.82605Z" fill="#956D84"/>
<path d="M15.6518 22.3651C15.7398 22.3651 15.8278 22.3479 15.9105 22.3134C15.9861 22.282 17.7832 21.5271 19.6104 20.1008C22.1014 18.1564 23.4348 15.8903 23.4664 13.5473C23.4995 11.0966 21.6325 8.70935 19.0639 8.70935C17.72 8.70935 16.475 9.37842 15.6517 10.4847C14.8286 9.37842 13.5836 8.70935 12.2396 8.70935C9.812 8.70935 7.83705 10.8755 7.83705 13.5382C7.83705 19.1794 15.0895 22.1901 15.3982 22.3155C15.4796 22.3486 15.5658 22.3651 15.6518 22.3651ZM9.1848 13.5382C9.1848 11.6187 10.5552 10.057 12.2397 10.057C13.4376 10.057 14.5311 10.8625 15.0254 12.1092C15.2459 12.6652 16.0578 12.6652 16.2782 12.1092C16.7725 10.8625 17.8659 10.057 19.0639 10.057C20.887 10.057 22.1421 11.8161 22.1189 13.5291C22.0626 17.7 16.8712 20.3802 15.6483 20.9538C14.4168 20.3898 9.1848 17.745 9.1848 13.5382Z" fill="#956D84"/>
</g>
<defs>
<clipPath id="clip0_95_1600">
<rect width="46" height="46" fill="white"/>
</clipPath>
</defs>
</svg>
